<svg xmlns="http://www.w3.org/2000/svg" viewBox="0 0 254.2 576"><defs><style>.a{fill:#fff;}.b{fill:#c8102e;}.c{fill:#1d428a;}</style></defs><title>nba-logoman</title><path class="a" d="M194.5,0H59.6A59.7,59.7,0,0,0,0,59.6V516.3A59.7,59.7,0,0,0,59.6,576H194.4a59.9,59.9,0,0,0,59.8-59.7V59.6A59.8,59.8,0,0,0,194.5,0"/><path class="b" d="M161,105.6v1.9c4.1,2.4,6.2,4.3,10.3,7,11,6.9,24.5,19.2,22.8,61.6,3.1,9.2,4.4,27.4,7.3,33.2,5.7,11.4,9.6,18.7,11.2,29.5,0,0,1.7,16.7,3.8,17.9,11.4,2.6,8.1,3.7,9.7,5.6s8.3,2.2,8.3,8.3a35.5,35.5,0,0,1,5.2,9.5V59.6A45.7,45.7,0,0,0,194.2,14H150.6c7,2.5,10.9,5.4,13.3,10.1,5.6.5,12.3,13.1,1.9,31.7,4.6,3.1,1,7.7-2.3,13-1,1.7-2,4.7-5.1,4.5-4,8.3-8.7,16.4-12.3,16.9-1.1,1.4-1.9,4.9-.2,6.6,5.5,2.5,11.9,5.7,15.1,8.8"/><path class="b" d="M240,310.1a40.6,40.6,0,1,1-47.3-54.5c-4.7-11.7-14.6-30.7-17.5-37s-9.5-44.8-10.9-52.5c-.3-1.7-17.5,10-17.6,10.7s-12.9,32.1-13.4,33.7-.3,5.2-.3,5.2,5.9.7,9.2,10.9S155.7,274,155.7,274a37.1,37.1,0,0,1-2.9,2.7c12.8,43,8.3,61.5,14.1,74.1,7.2,17.8,9.2,15.4,15.4,30.4,4.5,10.9,9.4,53.7,11.1,55.6,6.9,8.8,10.7,15.7,10.7,20.6s-5.9,19.7-3.7,28.3c1.3,5,2,16.4,4.3,18.5,0,0,2.2,4.2,1.1,6.1s-.9,1.6-.6,2.4c3.8,13.5,16.2,36.5-3.8,48.6h.4a45.3,45.3,0,0,0,38.3-45.1V310.1Z"/><path class="c" d="M188.7,507.5c-7.3-6.5-2.4-9.3-2.7-11.9-4.8-19.9-20.7-32-12.5-38.6a132.9,132.9,0,0,0-6-14.8c-24.7-14.2-45.7-37.2-49.3-40.6s-11.7-9.4-13.1-13.3c-5.9-5.5-35-46.7-41.8-61.9l-11.8-1.7c-5.4-22-23.3-40.4-23.8-62.4-.2-8.3,3.8-26.1,5.2-29.7s8.3-9.5,8.3-9.5v-5.9c-25.8.7-18.4-1.9-22.8-11.9-3.1-6.9-.9-8.5.2-13.3,3.5-14.2,14.9-36.1,19.7-46.1,1.5-5,6.4-17.1,6.4-17.1C63.9,89.7,71.1,92.6,93.9,90.4L95,88.8c22.9-1,19.1-2.7,22.3-24.7-3.3,1.4-4.3-6.9-4.3-6.9-1.8-12.5,3.5-10.2,6-10.4.5-20.6,2.6-27.1,17.5-32.8h-77A45.6,45.6,0,0,0,13.9,59.6V516.3a45.6,45.6,0,0,0,45.6,45.6H194.3C179,553.5,188.2,537.7,188.7,507.5Z"/><path class="a" d="M85.1,533.2V450.5h16c9.3,0,15,5,15,16.6v12.3c0,7.5-2.3,11.3-5.5,13.2,3.2,2.2,5.5,5.9,5.5,12.2v12c0,11.3-6.1,16.4-15,16.4h-16Zm11-35.9v25.5h4.2c3.8,0,4.8-2,4.8-5.9v-14c0-4.1-1.3-5.6-4.9-5.6Zm0-36.4v27.3h4.1c3.9,0,4.9-1.4,4.9-5.9V466.4c0-3.8-1.2-5.6-4.8-5.6H96.1Zm46,55.5h-10l-1.4,16.8H119.6l10-82.7h15.8l9.6,82.7H143.4Zm-4.9-56.6h-.6c-.7,10-2.1,27.4-2.5,33L132.8,507h8.6l-1.3-14.2c-.4-5.7-2-23-2.9-33M52.4,533.2H42.8V450.5H58l12.3,67.7c-1-16.2-2.4-35.8-2.4-52.5V450.4h9.6v82.7h-14L51.2,466.9c.8,15.3,1.1,27.5,1.1,40.2v26.1Z"/></svg>