<svg xmlns="http://www.w3.org/2000/svg" xmlns:xlink="http://www.w3.org/1999/xlink" viewBox="0 0 113.3 82.4"><defs><style>.a{fill:url(#a);}.b{fill:#fff;}.c{fill:#231f20;}</style><linearGradient id="a" x1="-150.13" y1="376.83" x2="-150.13" y2="409.46" gradientTransform="translate(314.3 -620.4) scale(1.72)" gradientUnits="userSpaceOnUse"><stop offset="0" stop-color="#27b6ea"/><stop offset="0.18" stop-color="#1fa4dd"/><stop offset="0.5" stop-color="#1389c9"/><stop offset="0.78" stop-color="#0c79bd"/><stop offset="1" stop-color="#0973b9"/></linearGradient></defs><title>sap-insights</title><polyline class="a" points="0 82.4 57.3 82.4 113.3 26.3 0 26.3 0 82.4"/><path class="b" d="M67.3,36.9H56.1V63.3L46.3,36.9H36.7L28.5,59c-.9-5.7-6.7-7.6-11.2-8.9-2.9-1-6.2-2.4-6.2-3.9s1.7-2.4,5-2.2a19.7,19.7,0,0,1,8.2,2.2l3.9-6.7a29.3,29.3,0,0,0-12.7-2.9h0c-4.8,0-8.8,1.5-11.2,4.1a9.8,9.8,0,0,0-2.7,6.5,8.8,8.8,0,0,0,3.8,7.7A22.9,22.9,0,0,0,13,58.3c3.1,1,5.7,1.7,5.7,3.6a3,3,0,0,1-.7,1.7c-.7.9-1.9,1-3.6,1.2a15.9,15.9,0,0,1-9.3-2.6L1.7,69.2a26.4,26.4,0,0,0,12.5,3.4h.5a14.8,14.8,0,0,0,9.6-3.3c.2-.2.3-.2.3-.3l-1.2,2.9H33.6l1.7-5.1a16.3,16.3,0,0,0,6,1,20.8,20.8,0,0,0,5.8-.9l1.7,5.1H65.4V61.4H69c8.8,0,13.9-4.5,13.9-11.8,0-8.9-5-12.7-15.6-12.7ZM41.5,59.6a8,8,0,0,1-3.6-.7l3.6-11.2h0L45,58.9A7.7,7.7,0,0,1,41.5,59.6ZM68,53.2H65.6V44.3H68c3.3,0,5.8,1,5.8,4.5s-2.6,4.5-5.8,4.5"/><path class="c" d="M.2,13.6V.2H2.4V13.6Z"/><path class="c" d="M5,13.6V3.9H7.2V5.5a4.5,4.5,0,0,1,3.4-1.7c1.7,0,2.9.9,2.9,2.7v7H11.3V7.2c0-1-.5-1.5-1.4-1.5A4,4,0,0,0,7.4,6.9v6.7H5Z"/><path class="c" d="M14.8,12.4,16,11A4.3,4.3,0,0,0,19,12.2c1.2,0,1.9-.3,1.9-1s-1-1-2.2-1.4-3.6-.9-3.6-3.1,1.4-2.9,3.6-2.9a5.5,5.5,0,0,1,3.9,1.4l-1,1.4a5.4,5.4,0,0,0-2.7-1c-1.2,0-1.7.5-1.7,1s1,1,2.1,1.2,3.6.9,3.6,3.1-1.9,2.9-4.1,2.9a5.3,5.3,0,0,1-3.9-1.4Z"/><path class="c" d="M24.7,2.2V.3h2.2V2.2Zm0,11.3V3.9h2.2v9.6Z"/><path class="c" d="M28,15.1A2,2,0,0,1,29.5,13a1.1,1.1,0,0,1-.7-1.2,2,2,0,0,1,1.4-1.7,3.1,3.1,0,0,1-1.5-2.7c0-2.1,1.5-3.4,4.1-3.4a4.5,4.5,0,0,1,2.9,1,6,6,0,0,1,2.4-1V5.8a6.4,6.4,0,0,0-1.7.2,3.2,3.2,0,0,1,.3,1.4c0,2.1-1.5,3.4-3.9,3.4a3.8,3.8,0,0,1-1.4-.2c-.3.2-.5.3-.5.7s.2.5,1,.5l1.7.2c2.9.2,3.9,1,3.9,2.6s-2.1,2.9-5,2.9-4.6-1-4.6-2.4Zm7.7-.5c0-.7-.5-1-2.4-1l-1.7-.2h-.5c-.7.3-.9.7-.9,1.2s1,1.2,2.9,1.2,2.6-.5,2.6-1.2Zm-1-7.2a1.7,1.7,0,0,0-1.9-1.9,1.7,1.7,0,0,0-1.9,1.9c0,1.2.7,1.9,2.1,1.9A1.8,1.8,0,0,0,34.7,7.4Z"/><path class="c" d="M39.3,13.6V.2h2.2V5.3a4.7,4.7,0,0,1,3.6-1.5c1.7,0,2.7,1,2.7,2.9v6.9H45.6V7.2c0-1-.5-1.5-1.4-1.5a4,4,0,0,0-2.6,1.2v6.7H39.3Z"/><path class="c" d="M50.6,11.2V5.8H48.9V4.1h1.7V.7h2.2V4.1h2.6V5.8H52.9v4.6c0,1,.3,1.4,1.4,1.4a2.2,2.2,0,0,0,1-.2v1.7l-1.7.2c-2.4.2-2.9-.7-2.9-2.4Z"/><path class="c" d="M55.8,12.4,57,11a4.3,4.3,0,0,0,3.1,1.2c1.2,0,1.9-.3,1.9-1s-1-1-2.2-1.4-3.6-.9-3.6-3.1,1.4-2.9,3.6-2.9a5.5,5.5,0,0,1,3.9,1.4l-1,1.4a5.4,5.4,0,0,0-2.7-1c-1.2,0-1.7.5-1.7,1s1,1,2.1,1.2,3.6.9,3.6,3.1-1.9,2.9-4.1,2.9a5.6,5.6,0,0,1-3.9-1.4Z"/><path class="c" d="M70.5,13.6V5.7H68.8V3.9h1.7v-1c0-1.5.7-2.9,3.1-2.9A3.3,3.3,0,0,1,75,.2V1.9h-.7c-.9,0-1.4.2-1.4,1.2v.9H75V5.7H72.9v7.9Z"/><path class="c" d="M76,13.6V3.9h2.2V5.5h0a3.6,3.6,0,0,1,3.4-1.7h.2V5.8h-.5a3.1,3.1,0,0,0-2.9,1.7v6.2L76,13.6Z"/><path class="c" d="M82.2,8.8c0-3.6,2.4-5,4.6-5s4.6,1.4,4.6,5-2.4,5-4.6,5S82.2,12.4,82.2,8.8Zm7.2,0c0-1.7-.7-3.1-2.4-3.1s-2.4,1.2-2.4,3.1.7,3.1,2.4,3.1S89.4,10.8,89.4,8.8Z"/><path class="c" d="M93.2,13.6V3.9h2.2V5.3a4.2,4.2,0,0,1,3.3-1.5,2.4,2.4,0,0,1,2.6,1.5,4.3,4.3,0,0,1,3.4-1.5c1.9,0,2.7,1.2,2.7,2.9v6.9h-2.2V7.2c0-1-.3-1.5-1.4-1.5a3.6,3.6,0,0,0-2.4,1.2v6.7H99.2V7.2c0-1-.3-1.5-1.4-1.5a3.6,3.6,0,0,0-2.4,1.2v6.7H93.2Z"/></svg>