<svg id="Layer_1" data-name="Layer 1" xmlns="http://www.w3.org/2000/svg" xmlns:xlink="http://www.w3.org/1999/xlink" viewBox="0 0 366.6 76"><defs><style>.cls-1{fill:#f0ab00;}.cls-2{fill:url(#linear-gradient);}.cls-3{fill:#fff;}</style><linearGradient id="linear-gradient" x1="-3.99" y1="-2681.29" x2="-3.99" y2="-2706" gradientTransform="matrix(1.12, 0, 0, -1.12, 315.63, -2977.39)" gradientUnits="userSpaceOnUse"><stop offset="0" stop-color="#27b6ea"/><stop offset="0.18" stop-color="#1fa4dd"/><stop offset="0.5" stop-color="#1389c9"/><stop offset="0.78" stop-color="#0c79bd"/><stop offset="1" stop-color="#0973b9"/></linearGradient></defs><title>sap_header_v5</title><polygon class="cls-1" points="366.6 76 116 76 0 0 366.6 0 366.6 76"/><path d="M93.1,18.4h3.5l5.4,8.1h0V18.4h3.3V32.7H102l-5.6-8.4h0v8.4H93.1V18.4Z"/><path d="M107.8,18.4h7.3c2.8,0,4.3,1.4,4.3,3.6a3.3,3.3,0,0,1-2.1,3.2h0a3.3,3.3,0,0,1,2.4,3.3,4,4,0,0,1-4.4,4.1h-7.5V18.4Zm6.3,5.7a1.5,1.5,0,0,0,1.7-1.5c0-.9-.7-1.4-1.8-1.4h-2.7v2.9Zm.1,5.8a1.6,1.6,0,0,0,1.8-1.6c0-1-.6-1.5-1.8-1.5h-2.8v3.1Z"/><path d="M125.4,18.4h3.8l5,14.3h-3.6l-.9-2.7h-5.1l-.9,2.7h-3.4Zm3.4,8.8L127.2,22h-.1l-1.7,5.2Z"/><path d="M140.3,22.1h3.2v1.7h0a3.9,3.9,0,0,1,3.2-1.9h1v2.8h-1.4c-1.4,0-2.8.6-2.8,2.4v5.5h-3.3V22.1Z"/><path d="M149.2,29.4V22.1h3.3v6.1c0,1.1.4,2,1.6,2s1.7-.7,1.7-2.2V22.1h3.3V32.7h-3.2V31.2h-.1a3.7,3.7,0,0,1-3.2,1.7A3.2,3.2,0,0,1,149.2,29.4Z"/><path d="M161.3,22.1h3.2v1.3h0a3.7,3.7,0,0,1,3.2-1.5,3.2,3.2,0,0,1,3.5,3.5v7.3h-3.3V26.5c0-1.1-.4-2-1.6-2s-1.7.7-1.7,2.2v5.9h-3.3Z"/><path d="M172.7,31.3l1.7-2a4.5,4.5,0,0,0,3,1.3c.8,0,1.6-.2,1.6-.9s-.5-.8-1.3-.9l-1.9-.4c-1.7-.4-2.7-1.2-2.7-2.8s1.8-3.6,4.4-3.6a6,6,0,0,1,4.4,1.4l-1.9,1.8a3.7,3.7,0,0,0-2.4-.9c-.9,0-1.4.3-1.4.8s.8.7,1.5.8l1.8.4c1.9.4,2.9,1.5,2.9,3s-2.6,3.7-4.8,3.7A6.6,6.6,0,0,1,172.7,31.3Z"/><path d="M189.1,18.2h3.3v2.7h-3.3Zm0,3.9h3.3V32.7h-3.3Z"/><path d="M195.2,30V24.7h-1.3V22.3h1.3v-3h3.3v3h2.2v2.4h-2.2v4.5a.8.8,0,0,0,.9.9h1.3v2.6a9.2,9.2,0,0,1-2.3.3C196.7,32.9,195.2,32.2,195.2,30Z"/><path d="M201.6,31.3l1.7-2a4.5,4.5,0,0,0,3,1.3c.8,0,1.6-.2,1.6-.9s-.5-.8-1.3-.9l-1.9-.4c-1.7-.4-2.7-1.2-2.7-2.8s1.8-3.6,4.4-3.6a6,6,0,0,1,4.4,1.4L209,25.1a3.7,3.7,0,0,0-2.4-.9c-.9,0-1.4.3-1.4.8s.8.7,1.5.8l1.8.4c1.9.4,2.9,1.5,2.9,3s-2.6,3.7-4.8,3.7A6.6,6.6,0,0,1,201.6,31.3Z"/><path d="M217.4,31.3l1.7-2a4.5,4.5,0,0,0,3,1.3c.8,0,1.6-.2,1.6-.9s-.5-.8-1.3-.9l-1.9-.4c-1.7-.4-2.7-1.2-2.7-2.8s1.8-3.6,4.4-3.6a6,6,0,0,1,4.4,1.4l-1.9,1.8a3.7,3.7,0,0,0-2.4-.9c-.9,0-1.4.3-1.4.8s.8.7,1.5.8l1.8.4c1.9.4,2.9,1.5,2.9,3s-2.6,3.7-4.8,3.7A6.6,6.6,0,0,1,217.4,31.3Z"/><path d="M229.4,30V24.7h-1.3V22.3h1.3v-3h3.3v3h2.2v2.4h-2.2v4.5a.8.8,0,0,0,.9.9h1.3v2.6a9.2,9.2,0,0,1-2.3.3C231,32.9,229.4,32.2,229.4,30Z"/><path d="M235.9,29.8c0-2.5,2.6-3.4,4.7-3.4h1.8v-.8c0-.9-.6-1.3-1.6-1.3s-1.6.5-1.6,1.1v.3h-2.9v-.4c0-2.3,2.3-3.3,4.7-3.3s4.8,1,4.8,3.6v4.8a13.8,13.8,0,0,0,.2,2.3h-3.1c0-.1,0-.4-.1-1.2h-.1a3.7,3.7,0,0,1-3.2,1.4C237.4,32.9,235.9,31.8,235.9,29.8Zm6.5-1v-.6h-1.6c-1,0-1.7.3-1.7,1.1s.4,1.1,1.5,1.1A1.6,1.6,0,0,0,242.5,28.8Z"/><path d="M248.5,30V24.7h-1.3V22.3h1.3v-3h3.3v3H254v2.4h-2.2v4.5a.8.8,0,0,0,.9.9H254v2.6a9.2,9.2,0,0,1-2.3.3C250.1,32.9,248.5,32.2,248.5,30Z"/><path d="M254.9,31.3l1.7-2a4.5,4.5,0,0,0,3,1.3c.8,0,1.6-.2,1.6-.9s-.5-.8-1.3-.9l-1.9-.4c-1.7-.4-2.7-1.2-2.7-2.8s1.8-3.6,4.4-3.6a6,6,0,0,1,4.4,1.4l-1.9,1.8a3.7,3.7,0,0,0-2.4-.9c-.9,0-1.4.3-1.4.8s.8.7,1.5.8l1.8.4c1.9.4,2.9,1.5,2.9,3s-2.6,3.7-4.8,3.7A6.6,6.6,0,0,1,254.9,31.3Z"/><path d="M178.3,46.1h3.4l1.6,6.3h.1l1.7-6.3h3l1.7,6.3h.1l1.7-6.3h3.1l-3.3,10.6h-3L186.6,50h0l-1.8,6.7h-3.1Z"/><path d="M196,42.2h3.3v2.7H196Zm0,3.9h3.3V56.7H196Z"/><path d="M202.1,54V48.7h-1.3V46.2h1.3v-3h3.3v3h2.2v2.4h-2.2v4.5a.8.8,0,0,0,.9.9h1.3v2.6a9.2,9.2,0,0,1-2.3.3C203.7,56.9,202.1,56.2,202.1,54Z"/><path d="M209.2,42.4h3.3v5.1h.1a3.6,3.6,0,0,1,3.1-1.6,3.2,3.2,0,0,1,3.5,3.5v7.3h-3.3V50.5c0-1.1-.4-2-1.6-2s-1.7.7-1.7,2.2v5.9h-3.3V42.4Z"/><path d="M225.3,54.3l2.3-2a4.5,4.5,0,0,0,3.6,1.8c1.1,0,2.2-.3,2.2-1.3s-.7-1.2-1.6-1.4l-2.5-.6c-1.9-.5-3.4-1.6-3.4-3.9s2.2-4.6,5.4-4.6,4.2.7,5.4,2.2l-2.3,1.9a3.7,3.7,0,0,0-3-1.3c-1,0-1.9.4-1.9,1.3s.9,1.1,1.9,1.4l2.2.6c2,.5,3.4,1.7,3.4,4s-2.8,4.7-5.7,4.7S226.6,56.2,225.3,54.3Z"/><path d="M243.1,42.4h3.8l5,14.3h-3.6l-.9-2.7h-5.1l-.9,2.7H238Zm3.4,8.8L244.9,46h-.1l-1.7,5.2Z"/><path d="M253.3,42.4h6.5c3.2,0,5,1.9,5,4.6a4.5,4.5,0,0,1-4.9,4.7h-2.9v4.9h-3.6V42.4Zm5.9,6.6a1.9,1.9,0,0,0,2.1-1.9c0-1.2-.8-1.9-2.1-1.9h-2.3V49Z"/><polyline id="polyline28" class="cls-2" points="283.1 57.9 311.5 57.9 339.2 30.2 283.1 30.2 283.1 57.9"/><path class="cls-3" d="M316.4,35.4h-5.5V48.5l-4.8-13.1h-4.8l-4.1,11c-.4-2.8-3.3-3.7-5.5-4.4s-3.1-1.2-3.1-2,.8-1.2,2.5-1.1a9.7,9.7,0,0,1,4.1,1.1l2-3.3a14.5,14.5,0,0,0-6.3-1.4,7.4,7.4,0,0,0-5.5,2,4.9,4.9,0,0,0-1.4,3.2,4.4,4.4,0,0,0,1.9,3.8,11.4,11.4,0,0,0,3.7,1.7c1.5.5,2.8.8,2.8,1.8a1.5,1.5,0,0,1-.3.8c-.3.4-.9.5-1.8.6a7.9,7.9,0,0,1-4.6-1.3L284,51.4a13,13,0,0,0,6.2,1.7h.3a7.3,7.3,0,0,0,4.8-1.6l.2-.2-.6,1.4h5l.8-2.5a8.1,8.1,0,0,0,3,.5,10.3,10.3,0,0,0,2.9-.4l.8,2.5h8.2V47.6h1.8c4.3,0,6.9-2.2,6.9-5.9s-2.5-6.3-7.7-6.3ZM303.7,46.7a3.9,3.9,0,0,1-1.8-.3l1.8-5.5,1.7,5.5A3.8,3.8,0,0,1,303.7,46.7Zm13.1-3.1h-1.2V39.1h1.2c1.6,0,2.9.5,2.9,2.2s-1.3,2.2-2.9,2.2"/><path d="M284.9,23.6V16.2h1.3v7.4Z"/><path d="M287.8,23.6V18.3H289v.9l.3-.3.4-.3.5-.2h.6a1.7,1.7,0,0,1,1.2.4,1.5,1.5,0,0,1,.4,1.2v3.9h-1.2V20.1a1,1,0,0,0-.2-.7.8.8,0,0,0-.6-.2l-.8.2-.7.5v3.7Z"/><path d="M293.4,22.9l.7-.7.7.4.9.2h.8a.5.5,0,0,0,.3-.5.4.4,0,0,0-.1-.3l-.3-.2h-.8l-.7-.2-.6-.3-.5-.5a1.4,1.4,0,0,1-.2-.7,1.4,1.4,0,0,1,.1-.6l.4-.5.6-.3h.8l1.3.2.9.5-.6.8-.3-.2-.4-.2H295a.5.5,0,0,0-.2.4.4.4,0,0,0,.1.3l.2.2h.8l.7.2.7.3.5.5a1.4,1.4,0,0,1,.2.8,1.5,1.5,0,0,1-.2.7l-.5.5-.7.3h-.9l-1.4-.2Z"/><path d="M299.1,17.4v-1h1.3v1Zm0,6.2V18.3h1.2v5.3Z"/><path d="M301.2,24.4a1.1,1.1,0,0,1,.2-.7l.6-.4a.7.7,0,0,1-.4-.6.8.8,0,0,1,.2-.6l.5-.4a1.8,1.8,0,0,1-.6-.6,1.9,1.9,0,0,1-.1-1.6l.4-.6.7-.4h.9l1,.2.7.4.6-.3.7-.2v1h-.9a1.2,1.2,0,0,1,.2.7,1.9,1.9,0,0,1-.2.8l-.4.6-.7.4H303l-.2.2v.2a.2.2,0,0,0,.1.2h2.4l.7.3.4.4a1.4,1.4,0,0,1,.1.6,1.3,1.3,0,0,1-.2.7l-.6.5-.9.3h-2.3l-.8-.3-.4-.4A1,1,0,0,1,301.2,24.4Zm1.1-.2q0,.3.4.5H304l1.1-.2c.3-.1.4-.3.4-.4v-.2l-.2-.2h-2.3l-.4.3A.7.7,0,0,0,302.3,24.2Zm.4-4a.9.9,0,0,0,.3.7,1.2,1.2,0,0,0,.8.2,1.2,1.2,0,0,0,.8-.2.9.9,0,0,0,.3-.7,1,1,0,0,0-.3-.7,1.4,1.4,0,0,0-1.6,0A1,1,0,0,0,302.7,20.1Z"/><path d="M307.6,23.6V16.2h1.2V19l.3-.3.4-.3.5-.2h.7a1.5,1.5,0,0,1,1.1.4,1.6,1.6,0,0,1,.4,1.2v3.8h-1.2V20.1q0-.9-.8-.9l-.8.2-.7.5v3.7h-1.2Z"/><path d="M313.2,19.3v-1h.9V16.5h1.2v1.9h1.4v1h-1.4v2.6a.9.9,0,0,0,.2.6l.6.2h.5v1h-1.7l-.5-.3a.9.9,0,0,1-.2-.5,2.8,2.8,0,0,1-.1-.6V19.3h-.9Z"/><path d="M317.2,22.9l.7-.7.7.4.9.2h.8a.5.5,0,0,0,.3-.5.4.4,0,0,0-.1-.3l-.3-.2h-.8l-.7-.2-.6-.3-.5-.5a1.4,1.4,0,0,1-.2-.7,1.4,1.4,0,0,1,.1-.6l.4-.5.6-.3h.8l1.3.2.9.5-.6.8-.3-.2-.4-.2h-1.5a.5.5,0,0,0-.2.4.4.4,0,0,0,.1.3l.2.2h.8l.7.2.7.3.5.5a1.4,1.4,0,0,1,.2.8,1.5,1.5,0,0,1-.2.7l-.5.5-.7.3h-.9l-1.4-.2Z"/><path d="M324.9,19.3v-1h.9v-.5a2.4,2.4,0,0,1,.1-.6l.3-.5.5-.3h1.6v.9h-1l-.2.2a.8.8,0,0,0-.1.3v.5h1.2v1h-1.2v4.3h-1.2V19.3h-.9Z"/><path d="M329.1,23.6V18.3h1.2v.9h0a2.1,2.1,0,0,1,1.9-1h.1v1.1H332a1.8,1.8,0,0,0-1,.3,2.1,2.1,0,0,0-.6.7v3.4h-1.2Z"/><path d="M332.7,21a3.3,3.3,0,0,1,.2-1.3,2.4,2.4,0,0,1,.6-.9l.8-.5,1-.2.9.2.8.5a2.5,2.5,0,0,1,.6.9,3.2,3.2,0,0,1,.2,1.3,3.1,3.1,0,0,1-.2,1.3,2.4,2.4,0,0,1-.6.9l-.8.5-.9.2-.9-.2-.8-.5a2.5,2.5,0,0,1-.6-.9A3.1,3.1,0,0,1,332.7,21Zm1.2,0a2.8,2.8,0,0,0,.1.7l.2.5.4.4h.6a1.2,1.2,0,0,0,1-.5,2.1,2.1,0,0,0,.3-1.3,2.8,2.8,0,0,0-.1-.7l-.2-.5-.4-.4h-.6a1.2,1.2,0,0,0-1,.5A2.1,2.1,0,0,0,334,21Z"/><path d="M339,23.6V18.3h1.2V19l.8-.6,1.1-.2h.6l.4.2.3.3.2.4.8-.6,1.1-.3a1.5,1.5,0,0,1,1.2.4,1.8,1.8,0,0,1,.4,1.2v3.8h-1.2V20.1a1.1,1.1,0,0,0-.2-.7.7.7,0,0,0-.6-.2l-.7.2-.7.5v3.7h-1.2V20.1a1.1,1.1,0,0,0-.2-.7.7.7,0,0,0-.6-.2l-.7.2-.7.5v3.7Z"/></svg>